<svg width="100" height="100" viewBox="0 0 100 100" fill="none" xmlns="http://www.w3.org/2000/svg">
<circle opacity="0.0518276" cx="50" cy="50" r="50" fill="#0061FF"/>
<path fill-rule="evenodd" clip-rule="evenodd" d="M40 38H60V36.25C60 35.5596 59.4404 35 58.75 35H41.25C40.5596 35 40 35.5596 40 36.25V38ZM36.25 40H63.75C64.4404 40 65 40.5596 65 41.25V63.75C65 64.4404 64.4404 65 63.75 65H36.25C35.5596 65 35 64.4404 35 63.75V41.25C35 40.5596 35.5596 40 36.25 40ZM55 52.5L46 47V58L55 52.5Z" fill="#0061FF"/>
</svg>
