<svg width="100" height="100" viewBox="0 0 100 100" fill="none" xmlns="http://www.w3.org/2000/svg">
<circle opacity="0.06468" cx="50" cy="50" r="50" fill="#FF6600"/>
<path fill-rule="evenodd" clip-rule="evenodd" d="M35 37V43H65V37C65 36.448 64.58 36 64.0625 36H35.9375C35.42 36 35 36.448 35 37ZM35 63C35 63.552 35.448 64 36 64H44V45H35V63ZM64.0952 64H46V45H65V63C65 63.552 64.5947 64 64.0952 64ZM38.5 41C39.3284 41 40 40.3284 40 39.5C40 38.6716 39.3284 38 38.5 38C37.6716 38 37 38.6716 37 39.5C37 40.3284 37.6716 41 38.5 41ZM45 39.5C45 40.3284 44.3284 41 43.5 41C42.6716 41 42 40.3284 42 39.5C42 38.6716 42.6716 38 43.5 38C44.3284 38 45 38.6716 45 39.5ZM48.5 41C49.3284 41 50 40.3284 50 39.5C50 38.6716 49.3284 38 48.5 38C47.6716 38 47 38.6716 47 39.5C47 40.3284 47.6716 41 48.5 41Z" fill="#FF6600"/>
</svg>
