<svg width="100" height="100" viewBox="0 0 100 100" fill="none" xmlns="http://www.w3.org/2000/svg">
<circle opacity="0.05" cx="50" cy="50" r="50" fill="#00BD28"/>
<path fill-rule="evenodd" clip-rule="evenodd" d="M36.1021 37.4517C36.1021 36.1008 37.1399 35 38.4151 35L67.3279 35C68.6031 35 69.641 36.1007 69.641 37.4516L69.6424 56.8038C69.6424 58.1546 68.6046 59.2554 67.3294 59.2554H57.4626L57.9109 62.0574H63.1471C63.6348 62.0574 64.0292 62.4758 64.0292 62.993C64.0292 63.5102 63.6348 63.9286 63.1471 63.9286H45.0001V62.0568L48.1302 62.0559L48.5785 59.2538H45.0001V57.3828H67.3289C67.6259 57.3828 67.8763 57.1172 67.8763 56.8023V37.4533C67.8763 37.1383 67.6259 36.8728 67.3289 36.8728H52.8725L38.4161 36.8712C38.1191 36.8712 37.8687 37.1368 37.8687 37.4517V40.3571H36.1021V37.4517ZM49.9219 62.0558H52.8726L56.1216 62.0574L55.6733 59.2553H52.8725L50.3702 59.2538L49.9219 62.0558Z" fill="#00BD28"/>
<path fill-rule="evenodd" clip-rule="evenodd" d="M31.7086 44.5798H39.3118C40.2518 44.5798 41.0204 45.3119 41.0204 46.2048V63.375C41.0204 64.269 40.2518 65 39.3118 65H31.7086C31.3671 65 31.0245 64.8921 30.7687 64.7292C30.5417 64.5938 30.3704 64.4044 30.228 64.1875C30.1424 64.0246 30.0578 63.8352 30.0289 63.6459C30 63.5644 30 63.4565 30 63.375V46.2048C30 46.1234 30 46.0155 30.0289 45.934C30.0567 45.7446 30.1146 45.5553 30.228 45.3923C30.3704 45.1754 30.5406 44.9861 30.7687 44.8507C31.0256 44.6877 31.3671 44.5798 31.7086 44.5798ZM36.4288 61.7856C36.4288 62.3773 35.9491 62.857 35.3574 62.857C34.7656 62.857 34.2859 62.3773 34.2859 61.7856C34.2859 61.1938 34.7656 60.7141 35.3574 60.7141C35.9491 60.7141 36.4288 61.1938 36.4288 61.7856Z" fill="#00BD28"/>
</svg>
