<svg width="100" height="100" viewBox="0 0 100 100" fill="none" xmlns="http://www.w3.org/2000/svg">
<circle opacity="0.0485491" cx="50" cy="50" r="50" fill="#B96DD7"/>
<path fill-rule="evenodd" clip-rule="evenodd" d="M40 38H60V36.25C60 35.5596 59.4404 35 58.75 35H41.25C40.5596 35 40 35.5596 40 36.25V38ZM36.25 40H63.75C64.4404 40 65 40.5596 65 41.25V63.75C65 64.4404 64.4404 65 63.75 65H36.25C35.5596 65 35 64.4404 35 63.75V41.25C35 40.5596 35.5596 40 36.25 40ZM46.25 47.5C46.25 46.1193 45.1307 45 43.75 45C42.3693 45 41.25 46.1193 41.25 47.5C41.25 48.8807 42.3693 50 43.75 50C45.1307 50 46.25 48.8807 46.25 47.5ZM53.75 47.5L41.25 58.75H60L53.75 47.5Z" fill="#B96DD7"/>
</svg>
